<?xml version="1.0" encoding="UTF-8"?>
<svg id="Layer_2" xmlns="http://www.w3.org/2000/svg" xmlns:xlink="http://www.w3.org/1999/xlink" viewBox="0 0 217.48 196.08">
  <defs>
    <style>
      .cls-1 {
        fill: none;
      }

      .cls-2 {
        font-family: Mansfield-ExtraLight, Mansfield;
        font-size: 21.9px;
        font-weight: 200;
      }

      .cls-2, .cls-3 {
        fill: #7f5100;
      }

      .cls-4 {
        fill: url(#linear-gradient-8);
      }

      .cls-5 {
        fill: url(#linear-gradient-7);
      }

      .cls-6 {
        fill: url(#linear-gradient-5);
      }

      .cls-7 {
        fill: url(#linear-gradient-6);
      }

      .cls-8 {
        fill: url(#linear-gradient-9);
      }

      .cls-9 {
        fill: url(#linear-gradient-4);
      }

      .cls-10 {
        fill: url(#linear-gradient-3);
      }

      .cls-11 {
        fill: url(#linear-gradient-2);
      }

      .cls-12 {
        fill: url(#linear-gradient);
      }

      .cls-3 {
        font-family: MistoRegular, Misto;
        font-size: 38.19px;
      }

      .cls-13 {
        clip-path: url(#clippath-1);
      }

      .cls-14 {
        clip-path: url(#clippath-3);
      }

      .cls-15 {
        clip-path: url(#clippath-2);
      }

      .cls-16 {
        fill: #fff;
      }

      .cls-17 {
        fill: url(#linear-gradient-10);
      }

      .cls-18 {
        fill: url(#linear-gradient-11);
      }

      .cls-19 {
        fill: url(#linear-gradient-12);
      }

      .cls-20 {
        fill: #f47200;
      }

      .cls-21 {
        clip-path: url(#clippath);
      }
    </style>
    <clipPath id="clippath">
      <path class="cls-1" d="M106.07,54.69h-25.33c-14.88,0-26.95-12.07-26.95-26.95V0h25.33c14.88,0,26.95,12.07,26.95,26.95v27.74Z"/>
    </clipPath>
    <linearGradient id="linear-gradient" x1="2269.06" y1="3055.23" x2="2314.73" y2="3090.69" gradientTransform="translate(2368.66 3118.97) rotate(-180)" gradientUnits="userSpaceOnUse">
      <stop offset="0" stop-color="#e46100"/>
      <stop offset=".98" stop-color="#ff7e00"/>
    </linearGradient>
    <clipPath id="clippath-1">
      <path class="cls-1" d="M111.41,54.69h25.33c14.88,0,26.95-12.07,26.95-26.95V0h-25.33c-14.88,0-26.95,12.07-26.95,26.95v27.74Z"/>
    </clipPath>
    <linearGradient id="linear-gradient-2" x1="107.87" y1="43.73" x2="159.37" y2="15.24" gradientUnits="userSpaceOnUse">
      <stop offset="0" stop-color="#eaaf00"/>
      <stop offset="1" stop-color="#ffc216"/>
    </linearGradient>
    <linearGradient id="linear-gradient-3" x1="2766.1" y1="3121.25" x2="2792.94" y2="3080.38" gradientTransform="translate(2934.28 3135.19) rotate(-180)" xlink:href="#linear-gradient-2"/>
    <clipPath id="clippath-2">
      <path class="cls-1" d="M163.69,114.72h-25.33c-14.88,0-26.95-12.07-26.95-26.95v-27.74h25.33c14.88,0,26.95,12.07,26.95,26.95v27.74Z"/>
    </clipPath>
    <linearGradient id="linear-gradient-4" x1="103.25" y1="62.01" x2="146.78" y2="94.27" gradientUnits="userSpaceOnUse">
      <stop offset="0" stop-color="#82e100"/>
      <stop offset="1" stop-color="#549c00"/>
    </linearGradient>
    <linearGradient id="linear-gradient-5" x1="115.65" y1="47.17" x2="167.68" y2="92.11" xlink:href="#linear-gradient-4"/>
    <clipPath id="clippath-3">
      <path class="cls-1" d="M53.79,114.72h25.33c14.88,0,26.95-12.07,26.95-26.95v-27.74h-25.33c-14.88,0-26.95,12.07-26.95,26.95v27.74Z"/>
    </clipPath>
    <linearGradient id="linear-gradient-6" x1="59.47" y1="108.54" x2="111.76" y2="54.46" gradientUnits="userSpaceOnUse">
      <stop offset="0" stop-color="#ffdf18"/>
      <stop offset="1" stop-color="#ffcd00"/>
    </linearGradient>
    <linearGradient id="linear-gradient-7" x1="29.47" y1="107.67" x2="74.49" y2="69.46" xlink:href="#linear-gradient-6"/>
    <linearGradient id="linear-gradient-8" x1="131.63" y1="100.57" x2="142.17" y2="100.57" xlink:href="#linear-gradient-4"/>
    <linearGradient id="linear-gradient-9" x1="54.13" y1="93.94" x2="67.81" y2="93.94" xlink:href="#linear-gradient-6"/>
    <linearGradient id="linear-gradient-10" x1="72.1" y1="112.17" x2="76.88" y2="112.17" xlink:href="#linear-gradient-6"/>
    <linearGradient id="linear-gradient-11" x1="55.84" y1="27.26" x2="69.75" y2="27.26" gradientTransform="matrix(1,0,0,1,0,0)" xlink:href="#linear-gradient"/>
    <linearGradient id="linear-gradient-12" x1="148.5" y1="36.4" x2="158.93" y2="36.4" xlink:href="#linear-gradient-6"/>
  </defs>
  <g id="Layer_1-2" data-name="Layer_1">
    <g>
      <text class="cls-2" transform="translate(21.1 191.07)"><tspan x="0" y="0">Sehatkan Ternak</tspan></text>
      <text class="cls-3" transform="translate(0 162.37)"><tspan x="0" y="0">Bledug Kunir</tspan></text>
      <g>
        <g>
          <g class="cls-21">
            <path class="cls-20" d="M106.07,54.69h-25.33c-14.88,0-26.95-12.07-26.95-26.95V0h25.33c14.88,0,26.95,12.07,26.95,26.95v27.74Z"/>
            <path class="cls-12" d="M112.44,62.14l-6.42-7.45c-6.49-1.9-27.51-.55-40.14-13.69C53.11,27.71,55.55,6.79,53.73,0c-2.1,17.12-4.21,34.23-6.31,51.35l65.01,10.79Z"/>
            <path class="cls-16" d="M90.98,30.89c-1.93-3.2-7.51-8.89-8.72-10.82-.9-1.43-2.66-1.2-3.52-.99-.36.09-.73.04-1.06-.12-1.06-.52-2.44-1.37-3.82-2.72-1.25-1.23-2.11-2.49-2.69-3.53-.24-.43-.86-.39-1.04.08-.33.89-.62,2.23-.17,3.76.49,1.65,1.39,2.33,2.17,2.83.38.17.27.48-.17.24-.85-.38-1.79-.69-3.26-.33-1.18.3-3.3,1.28-3.4,2.89-.04.61.21,1.3.67,1.69,1.13.94,3.49-.11,5.9-1.54,0,0-2.63,3.33-6.18,3.52-2.31.12-5.71.09-7.8.04h-.01c-.69-.01-1.24-.03-1.55-.04-.1,0-.2,0-.29.01-7.82.39-14.04,7.15-14.04,15.43s6.61,15.45,14.77,15.45c7.64,0,13.93-6.08,14.69-13.87,0,0,0,0,0-.02.08-.36,1.43-6.11,7.97-6.75,6.75-.66,9.67,1.98,10.44-.52,0,0,3.06-1.51,1.12-4.71ZM80.23,24.61c-.05.02-.1.03-.15.03-.17,0-.33-.11-.39-.28,0-.01-.21-.51-.88-.57-.64-.06-1.03.59-1.03.6-.12.21-.38.28-.58.15-.2-.12-.27-.4-.15-.6.03-.05.66-1.14,1.84-1.02,1.2.12,1.57,1.09,1.59,1.14.08.23-.03.48-.24.57ZM87.86,32.83c-.45,0-.8-.38-.8-.84s.36-.84.8-.84.8.38.8.84-.36.84-.8.84Z"/>
          </g>
          <g class="cls-13">
            <path class="cls-11" d="M111.34,54.69h25.33c14.88,0,26.95-12.07,26.95-26.95V0h-25.33C123.41,0,111.34,12.07,111.34,26.95v27.74Z"/>
            <path class="cls-10" d="M110.26,59.81l1.18-5.38c9.83-1.43,28.44,0,40-12.36,11.76-12.58,9.93-35.05,12.28-42.33,1.46,0,2.95-1.27,4.42-1.27l.81,60.19-58.7,1.15Z"/>
            <path class="cls-16" d="M172.18,39.9c-2.27,1.29-4.88,2.01-7.65,2.01-4.13,0-7.89-1.62-10.74-4.29-1.77-1.65-3.18-3.7-4.11-6.03-.29-.71-.53-1.45-.72-2.2t0,0c-1.98-5.9-4.28-5.75-4.28-5.75,0,0,2.56-2.14,1.75-3.97-.57-1.3-2.41-.81-3.43-.41-.43.16-.9-.02-1.14-.43l-.76-1.33c-.33-.67-1.2-.77-1.67-.2l-.8.99c-.34.42-.92.49-1.34.17l-.81-.61c-.63-.48-1.55-.23-1.83.54-.22.61-.3,1.23-.3,1.88.09,1.35.68,2.22,1.39,2.86.3.28.28.78-.03,1.04l-3.44,2.86c-.45.37-.27,1.12.29,1.24l4.1.59c.26.04.43.31.35.57-.59,1.99-2.48,9.26.91,10.03,1.03.23,1.72,0,2.18-.5-.37,6.43,1.62,11.77,1.62,11.77,1.81,7.23,8.1,12.56,15.58,12.56,8.9,0,16.11-7.55,16.11-16.86,0-2.32-.45-4.53-1.26-6.54ZM141.68,25.01c-.03.23-.22.41-.44.41-.02,0-.04,0-.06,0-.24-.03-.41-.26-.38-.52,0-.09.07-.86-.56-1.09-.69-.26-1.28.39-1.3.42-.17.19-.44.2-.63.03-.18-.17-.19-.46-.03-.65.04-.05.99-1.15,2.26-.67,1.05.39,1.21,1.53,1.15,2.08Z"/>
          </g>
          <g class="cls-15">
            <path class="cls-9" d="M163.62,114.72h-25.33c-14.88,0-26.95-12.07-26.95-26.95v-27.74h25.33c14.88,0,26.95,12.07,26.95,26.95v27.74Z"/>
            <path class="cls-6" d="M164.7,118.68l-2.03-3.5c-.5-5.19.92-31.19-13.15-44.31-7.91-7.38-19.26-9.48-39.13-10.38,1.35-1.47,2.7-2.94,4.05-4.42l48.24,2.57,2.03,60.03Z"/>
            <path class="cls-16" d="M164.32,96.89h0c-.09,0-.79.02-1.81.04-2.06.03-5.45.06-7.89-.05-3.75-.17-5.81-3.87-8.02-6.68-.87-1.11-4.7-3.37-4.7-3.37,0,0,.58-3.53,3.48-4.25,2.9-.72,5.03,2.73,3.27,4.53-1.07,1.09-1.88-.45-2.15-1.54-.05-.21-.34-.23-.4-.02-.91,2.85,1.98,4.86,3.92,2.72,2.11-2.32,2.32-7.84-4.12-7.95-6.44-.11-8.97,5.52-8.97,5.52,0,0-2.75,1.43-3.06,2.1-.32.66-2.75,1.87-4.86,2.87-2.11.99-1.9,2.54-1.9,2.54-2.61,2.87,1.24,4.09,1.24,4.09-1.24,3.08-.2,5.69.76,7.23.34.53,1.12.35,1.22-.28.23-1.6,1.07-3.82,3.85-4.63,4.54-1.32,10.87,8.5,11.72,15.8,0,10.31,7.99,18.68,17.85,18.68s17.85-8.36,17.85-18.68-7.68-18.35-17.28-18.67ZM139.3,91.1c-.02.24-.22.42-.45.41-.23-.02-.41-.23-.39-.47,0-.13-.36-.47-.75-.52-.32-.04-.88.19-1.1.73-.07.17-.22.27-.39.27-.05,0-.11-.01-.16-.03-.21-.1-.31-.35-.22-.58.37-.9,1.3-1.35,1.98-1.26.66.09,1.54.69,1.48,1.46Z"/>
          </g>
          <g class="cls-14">
            <path class="cls-7" d="M53.79,114.72h25.33c14.88,0,26.95-12.07,26.95-26.95v-27.74h-25.33c-14.88,0-26.95,12.07-26.95,26.95v27.74Z"/>
            <path class="cls-5" d="M42.66,121.11l11.13-6.39c2.92-7.65,1.05-29.45,11.59-41.06,12.31-13.56,32.99-10.41,40.7-13.63-1.87-1.17-3.75-2.33-5.62-3.5l-44.36.85-13.44,63.73Z"/>
            <path class="cls-16" d="M87.17,91.97c-.33-.26-2.38-1.1-4.05-1.75-.04-.51-.09-1.02-.16-1.54-.43-3.41-2.64-7.87-6.2-8.27-5.88-.66-8.69,3.44-10.21,8.45-.06.23-.14.46-.21.69-2.22,6.63-6.49,7.35-10.28,6.42s-7.73-4.89-7.73-11.18c-1.34,2-3.73,6.31-4.29,8.83-2.34,10.5,3.98,20.69,13.95,23.44,11.76,3.25,24.75-4.83,25.26-22.41,1.56-.83,4.33-2.36,3.92-2.69ZM78.55,86.07c-.21.13-.49.06-.62-.16,0,0-.63-1.04-1.57-1.01-.9.03-1.27,1.04-1.29,1.08-.08.22-.3.35-.52.29-.02,0-.04-.01-.05-.02-.23-.09-.35-.36-.27-.6.02-.07.58-1.65,2.1-1.7,1.47-.05,2.33,1.4,2.37,1.47.13.22.06.51-.15.64Z"/>
          </g>
        </g>
        <g>
          <path class="cls-4" d="M131.81,100.02c.53-.94,1.49-1.62,2.56-1.85.53-.11,1.09-.13,1.63-.07.54.09,1.08.26,1.54.53.96.5,1.76,1.21,2.48,1.97.73.76,1.37,1.59,1.93,2.47,0,0,0,.02,0,.03,0,0-.02,0-.03,0-.66-.8-1.36-1.56-2.12-2.27-.76-.69-1.56-1.36-2.46-1.8-.89-.46-1.9-.59-2.88-.41-.96.18-1.88.71-2.52,1.49h0s-.07.04-.1.02c-.03-.02-.03-.06-.02-.09Z"/>
          <path class="cls-8" d="M54.39,96.39c1.35.52,2.77.88,4.19,1.02.71.06,1.43.04,2.13-.03.69-.12,1.39-.27,2-.62.62-.31,1.17-.75,1.7-1.24.53-.47.99-1.03,1.42-1.6.85-1.14,1.47-2.48,1.74-3.91-.05,1.46-.6,2.89-1.41,4.13-.42.61-.89,1.19-1.43,1.7-.26.27-.55.49-.83.74-.32.2-.61.45-.97.59-1.37.67-2.92.8-4.38.59-1.46-.2-2.88-.66-4.17-1.34-.01,0-.02-.03-.01-.04,0-.01.02-.02.04-.01Z"/>
          <path class="cls-17" d="M76.8,111.19c-.62.61-1.35,1.05-2.1,1.45-.76.37-1.58.69-2.43.74.4-.13.78-.3,1.16-.48.37-.18.74-.37,1.1-.58.72-.41,1.41-.88,2.08-1.35h0c.07-.05.16-.04.2.03.04.06.03.14-.02.19Z"/>
          <path class="cls-18" d="M56.02,27.71c1.08-.38,2.22-.56,3.35-.66,1.15-.08,2.28-.04,3.42-.03,1.13.03,2.27.05,3.39.04,1.12-.03,2.27-.03,3.34-.31h0s.09.01.1.06c.01.04-.01.08-.05.1-1.1.39-2.25.45-3.39.51-1.14.05-2.28.02-3.41,0-1.13-.03-2.27-.09-3.39-.05-1.12.05-2.25.15-3.35.42-.02,0-.04,0-.04-.02,0-.02,0-.04.02-.04Z"/>
          <path class="cls-19" d="M158.75,42.03c-1.28-.31-2.5-.88-3.61-1.6-1.11-.72-2.13-1.59-3.01-2.6-.85-1.02-1.63-2.11-2.18-3.32-.32-.58-.51-1.22-.75-1.84-.21-.63-.34-1.28-.52-1.91.43,1.24.89,2.47,1.52,3.62.58,1.17,1.36,2.22,2.2,3.21.83,1,1.84,1.84,2.9,2.6,1.07.74,2.22,1.38,3.47,1.8,0,0,.01.01.01.02,0,0-.01.01-.02.01Z"/>
        </g>
      </g>
    </g>
  </g>
</svg>